<?xml version="1.0" standalone="yes"?>
<svg xmlns="http://www.w3.org/2000/svg" width="256" height="256">
<path style="fill:#010101; stroke:none;" d="M0 0L0 111L1 111C1.54846 98.2589 6.40005 85.4964 11.5872 74C14.2011 68.2068 19.2953 62.5249 19 56L22 56L21 53C31.6556 51.0233 39.3549 32.2525 48 26L46 29L52 23L51 25L56 20L55 22L56 22L56 19L61 17L60 19L61 19L61 16L66 14L65 16L66 16L66 13L69 14C69.3601 11.3073 70.4405 11.62 73 12L72 10L73 10L80 9L78 8L78 7C82.0201 7.63002 88.408 7.90697 89 3L92 3L91 5L111 1L77 0L0 0z"/>
<path style="fill:#feac68; stroke:none;" d="M100 0L100 1L105 1L100 0M91 5L89 3C88.3907 7.68869 81.7622 7.20551 78 7L78 8L80 9L72 10L73 12C70.2526 11.1711 69 11.0121 69 14L66 13L66 16L65 16L66 14L65 14L61 19L60 19L61 17L60 17L56 22L55 22L56 20L55 20L51 25L52 23L51 23L46 29L48 26L21 53L22 56L19 56L12.0278 72L2 103L172 103L225 103L254 104L254 100L255 100L255 105L256 105L247 74L245 76L245 70L243 71C243.785 57.8483 225.884 40.9012 216.961 32.7153C184.51 2.94626 133.573 -11.0609 91 5z"/>
<path style="fill:#010101; stroke:none;" d="M145 0L145 1L151 1L145 0M156 0L156 1C183.884 4.75786 209.869 24.3707 227.711 45C233.305 51.4676 243.081 62.002 243 71L245 70L245 76L247 74L255 100L256 100L256 0L156 0z"/>
<path style="fill:#feac68; stroke:none;" d="M92 2L92 3L100 2L92 2z"/>
<path style="fill:#010101; stroke:none;" d="M151 1L151 2L165 5L151 1z"/>
<path style="fill:#feac68; stroke:none;" d="M81 6L81 7L89 5L81 6z"/>
<path style="fill:#010101; stroke:none;" d="M166 4L166 5L175 8L175 7L166 4z"/>
<path style="fill:#feac68; stroke:none;" d="M74 9L74 10L78 9L74 9z"/>
<path style="fill:#010101; stroke:none;" d="M176 8L176 9L182 11L182 10L176 8M183 11L184 12L183 11M70 12L71 13L70 12M185 12L186 13L185 12M187 13L188 14L187 13M189 14L191 16L189 14M63 16L64 17L63 16M192 16L193 17L192 16M194 17L196 19L194 17M58 19L59 20L58 19M197 19L198 20L197 19M199 20L201 22L199 20z"/>
<path style="fill:#feac68; stroke:none;" d="M52 22L53 23L52 22z"/>
<path style="fill:#010101; stroke:none;" d="M202 22L205 25L202 22z"/>
<path style="fill:#feac68; stroke:none;" d="M48 25L49 26L48 25z"/>
<path style="fill:#010101; stroke:none;" d="M206 25L210 29L206 25z"/>
<path style="fill:#feac68; stroke:none;" d="M43 29L22 53L23 53L43 29z"/>
<path style="fill:#010101; stroke:none;" d="M211 29L236 57C230.117 46.4451 220.877 35.9573 211 29z"/>
<path style="fill:#feac68; stroke:none;" d="M20 55L21 56L20 55M18 58L11 71L12 71L18 58z"/>
<path style="fill:#010101; stroke:none;" d="M236 58L242 69L243 69L236 58z"/>
<path style="fill:#feac68; stroke:none;" d="M10 72L11 73L10 72M245 72L246 73L245 72M9 74L1 100L2 100L9 74z"/>
<path style="fill:#010101; stroke:none;" d="M246 76L253 100L254 100C253.375 92.3438 250.876 82.0412 246 76z"/>
<path style="fill:#feac68; stroke:none;" d="M0 100L0 105L1 105L0 100z"/>
<path style="fill:#010101; stroke:none;" d="M254 100L255 111L256 111L254 100z"/>
<path style="fill:#d75d93; stroke:none;" d="M2 101L3 102L2 101M253 101L254 102L253 101M3 166L4 166L4 164L5 164L6 175L7 175L8 173L8 179C11.5629 179 11.6123 183.091 11 186L13 185L12 188C15.4993 188.812 15.9457 191.667 16 195C19.824 196.221 22.525 201.106 23 205L130 206L233 205C233.444 201.105 236.198 196.31 240 195L239 192L241 193L244 188L243 185L245 186C243.837 182.512 245.292 178.323 248 179L248 173L249 175L250 175L251 164L252 164L252 166L256 121L253.397 104.603L239 103L198 103L54 103L17 103L2.74151 104.028L0 121L3 166z"/>
<path style="fill:#feac68; stroke:none;" d="M255 111L256 112L255 111z"/>
<path style="fill:#010101; stroke:none;" d="M0 145L0 256L111 256L111 255L70 245L71 243L68 244L63 239L64 241L63 241L62 238L56 237L56 234L53 235C52.6873 232.108 51.9227 231.928 49 232C48.4 228.74 47.299 228.131 44 228L25 204L24 206L23 206L24 203L21 203L22 200L19 200C19.275 196.917 19.1731 195.367 16 195C16.4152 191.394 15.7521 188.782 12 188L13 185L12 185L12 187L11 187L10 178L9 180L8 180L8 173L7 173L7 176L6 176L5 164L4 164L4 167L3 167C4.20025 160.233 2.82119 151.284 0 145M255 145L253 167L252 167L252 164L251 164L250 176L249 176L249 173L248 173L248 180L247 180L246 178L245 187L244 187L244 185L243 185L244 188C240.418 188.416 240.44 190.698 241 194L240 194L240 192L239 192L240 195C236.827 195.367 236.725 196.917 237 200C233.427 200.69 232.867 202.462 233 206L232 206L231 204L212 228C208.701 228.131 207.6 228.74 207 232C204.077 231.928 203.313 232.108 203 235L200 234L200 237C196.917 236.725 195.367 236.827 195 240C191.396 239.793 188.784 240.249 188 244L185 243L186 245L185 245L145 255L145 256L256 256L256 179L255 145z"/>
<path style="fill:#c024dc; stroke:none;" d="M0 151L1 152L0 151M255 151L256 152L255 151z"/>
<path style="fill:#d75d93; stroke:none;" d="M0 152L0 155L1 155L0 152M255 152L255 155L256 155L255 152z"/>
<path style="fill:#c024dc; stroke:none;" d="M0 155L1 156L0 155M255 155L256 156L255 155M1 156L2 157L1 156M254 156L255 157L254 156z"/>
<path style="fill:#d75d93; stroke:none;" d="M1.33333 157.667L1.66667 158.333L1.33333 157.667M254.333 157.667L254.667 158.333L254.333 157.667z"/>
<path style="fill:#feac68; stroke:none;" d="M1 159L2 160L1 159M254 159L255 160L254 159z"/>
<path style="fill:#c024dc; stroke:none;" d="M2 160L3 161L2 160M253 160L254 161L253 160z"/>
<path style="fill:#d75d93; stroke:none;" d="M2.33333 161.667L2.66667 162.333L2.33333 161.667M253.333 161.667L253.667 162.333L253.333 161.667z"/>
<path style="fill:#c024dc; stroke:none;" d="M2 163L3 164L2 163M253 163L254 164L253 163z"/>
<path style="fill:#feac68; stroke:none;" d="M3 166L4 167L3 166M252 166L253 167L252 166M4 167L5 168L4 167M251 167L252 168L251 167z"/>
<path style="fill:#d75d93; stroke:none;" d="M4 168L5 169L4 168M251 168L252 169L251 168z"/>
<path style="fill:#feac68; stroke:none;" d="M4 169L5 170L4 169M251 169L252 170L251 169M5 170L6 171L5 170M250 170L251 171L250 170z"/>
<path style="fill:#d75d93; stroke:none;" d="M5 171L6 172L5 171M250 171L251 172L250 171z"/>
<path style="fill:#c024dc; stroke:none;" d="M5 172L6 173L5 172M250 172L251 173L250 172M6 175L7 176L6 175z"/>
<path style="fill:#feac68; stroke:none;" d="M8 175L9 176L8 175M247 175L248 176L247 175z"/>
<path style="fill:#c024dc; stroke:none;" d="M249 175L250 176L249 175z"/>
<path style="fill:#d75d93; stroke:none;" d="M7 176L8 177L7 176M248 176L249 177L248 176z"/>
<path style="fill:#c024dc; stroke:none;" d="M7 177L8 178L7 177M248 177L249 178L248 177z"/>
<path style="fill:#feac68; stroke:none;" d="M8 179L9 180L8 179M247 179L248 180L247 179M9 180L10 181L9 180M246 180L247 181L246 180z"/>
<path style="fill:#d75d93; stroke:none;" d="M9 181L10 182L9 181M246 181L247 182L246 181M10 183L11 184L10 183M245 183L246 184L245 183z"/>
<path style="fill:#c024dc; stroke:none;" d="M10 184L11 185L10 184M245 184L246 185L245 184M11 186L12 187L11 186M244 186L245 187L244 186M13 188L14 189L13 188M242 188L243 189L242 188z"/>
<path style="fill:#d75d93; stroke:none;" d="M13 189L14 190L13 189M242 189L243 190L242 189z"/>
<path style="fill:#feac68; stroke:none;" d="M14 190L15 191L14 190M241 190L242 191L241 190z"/>
<path style="fill:#644cad; stroke:none;" d="M14 191L15 192L14 191M241 191L242 192L241 191z"/>
<path style="fill:#c024dc; stroke:none;" d="M15.3333 192.667L15.6667 193.333L15.3333 192.667M240 193L241 194L240 193z"/>
<path style="fill:#644cad; stroke:none;" d="M17.3333 195.667L17.6667 196.333L17.3333 195.667M238.333 195.667L238.667 196.333L238.333 195.667z"/>
<path style="fill:#c024dc; stroke:none;" d="M18 197L19 198L18 197M237 197L238 198L237 197M19 198L20 199L19 198M236 198L237 199L236 198z"/>
<path style="fill:#644cad; stroke:none;" d="M19 199L20 200L19 199M236 199L237 200L236 199z"/>
<path style="fill:#c024dc; stroke:none;" d="M20 200L21 201L20 200M235 200L234 202L235 200M21.6667 201.333L22.3333 201.667L21.6667 201.333z"/>
<path style="fill:#644cad; stroke:none;" d="M21 202L22 203L21 202M234 202L235 203L234 202z"/>
<path style="fill:#c024dc; stroke:none;" d="M22 203L23 204L22 203M233 203L234 204L233 203M23 205L24 206L23 205z"/>
<path style="fill:#644cad; stroke:none;" d="M25 205L26 206L25 205M230 205L231 206L230 205z"/>
<path style="fill:#c024dc; stroke:none;" d="M232 205L233 206L232 205z"/>
<path style="fill:#644cad; stroke:none;" d="M24 206L25 207L24 206M26 206L44 228L49 232C51.6463 231.95 52.815 232.225 53 235L56 234L56 237L62 238L61 240L64 241L63 239L68 244L71 243L70 245L71 245L98 253.116L140 255.985L186 245L185 243L188 244C188.796 240.556 191.682 239.856 195 240C195.372 236.973 197.153 236.764 200 237L200 234L203 235C203.284 232.251 204.299 231.901 207 232L212 228L230 206L26 206M231 206L232 207L231 206z"/>
<path style="fill:#c024dc; stroke:none;" d="M25 207L26 208L25 207M230 207L231 208L230 207z"/>
<path style="fill:#644cad; stroke:none;" d="M26 208L27 209L26 208M229 208L230 209L229 208z"/>
<path style="fill:#d75d93; stroke:none;" d="M27 209L28 210L27 209M228 209L229 210L228 209z"/>
<path style="fill:#c024dc; stroke:none;" d="M27 210L28 211L27 210M228 210L229 211L228 210z"/>
<path style="fill:#644cad; stroke:none;" d="M28 211L29 212L28 211M227 211L228 212L227 211z"/>
<path style="fill:#d75d93; stroke:none;" d="M29 212L30 213L29 212M226 212L227 213L226 212z"/>
<path style="fill:#644cad; stroke:none;" d="M30 213L31 214L30 213M225 213L226 214L225 213M31 214L32 215L31 214M224 214L225 215L224 214M32 215L33 216L32 215M223 215L224 216L223 215M33 216L34 217L33 216M222 216L223 217L222 216M34 217L35 218L34 217M221 217L222 218L221 217M35 218L39 222L35 218M220 218L217 222L220 218z"/>
<path style="fill:#c024dc; stroke:none;" d="M35 219L36 220L35 219M220 219L221 220L220 219M36 220L37 221L36 220M219 220L220 221L219 220M37 221L38 222L37 221M218 221L219 222L218 221z"/>
<path style="fill:#644cad; stroke:none;" d="M39 222L40 223L39 222M216 222L217 223L216 222M40 223L41 224L40 223z"/>
<path style="fill:#c024dc; stroke:none;" d="M215 223L216 224L215 223z"/>
<path style="fill:#644cad; stroke:none;" d="M41 224L42 225L41 224M214 224L215 225L214 224M42 225L43 226L42 225M213 225L214 226L213 225M43 226L44 227L43 226M212 226L213 227L212 226M46 228L49 231L46 228M209 228L207 231L209 228M51 232L53 234L51 232M204 232L203 234L204 232M55 235L56 236L55 235M200 235L201 236L200 235M58 237L61 239L61 238L58 237M197 237L195 238L195 239L197 237M192 240L188 242L188 243L193 241L192 240M64 241L64 242L68 243L68 242L64 241M72 245L72 246L78 248L78 247L72 245M178 247L178 248L184 246L178 247M79 248L80 249L79 248M176 248L177 249L176 248M81.6667 249.333L82.3333 249.667L81.6667 249.333M173.667 249.333L174.333 249.667L173.667 249.333M84 250L84 251L92 253L92 252L84 250M164 252L164 253L172 251L164 252M93.6667 253.333L94.3333 253.667L93.6667 253.333M161.667 253.333L162.333 253.667L161.667 253.333M96 254L96 255L99 255L96 254M157 254L157 255L160 255L157 254M101 255L101 256L104 256L101 255M152 255L152 256L155 256L152 255z"/>
</svg>
